<?xml version="1.0" encoding="utf-8"?>
<!-- Generator: Adobe Illustrator 19.1.0, SVG Export Plug-In . SVG Version: 6.00 Build 0)  -->
<svg version="1.0" id="Layer_1" xmlns="http://www.w3.org/2000/svg" xmlns:xlink="http://www.w3.org/1999/xlink" x="0px" y="0px"
	 viewBox="0 0 222 34.2" enable-background="new 0 0 222 34.2" xml:space="preserve">
<g id="XMLID_243_">
	<g id="XMLID_251_">
		<path id="XMLID_282_" d="M0.9,32.9V1.2h12.9v10.7h3.3V1.2H30v31.7H17.1V19.1h-3.3v13.7H0.9z"/>
		<path id="XMLID_280_" d="M33,32.9V1.2h12.9v31.7H33z"/>
		<path id="XMLID_277_" d="M48.9,32.9V1.2H70c2.9,0,5,0.5,6.3,1.6c1.3,1.1,1.9,2.8,1.9,5.2v8.7c0,2.8-0.6,4.8-1.8,6
			c-1.2,1.1-3.3,1.7-6.4,1.7h-8.2v8.5H48.9z M63.5,8.3h-1.7v8.9h1.7c0.6,0,1.1-0.2,1.4-0.5c0.3-0.3,0.4-0.9,0.4-1.8v-4.3
			c0-0.8-0.1-1.4-0.4-1.8C64.6,8.5,64.2,8.3,63.5,8.3z"/>
		<path id="XMLID_275_" d="M80.2,32.9V1.2h12.9v10.7h3.3V1.2h12.9v31.7H96.4V19.1h-3.3v13.7H80.2z"/>
		<path id="XMLID_272_" d="M119.1,33.1c-2.9,0-4.9-0.6-6.1-1.7c-1.2-1.1-1.8-3.1-1.8-5.9V7.7c0-2.3,0.6-4,1.9-5.1
			c1.3-1.1,3.2-1.6,6-1.6h13.5c2.9,0,5,0.5,6.3,1.6c1.3,1,1.9,2.8,1.9,5.2v17.8c0,2.8-0.6,4.8-1.8,5.9c-1.2,1.1-3.3,1.7-6.4,1.7
			H119.1z M124.3,10.4v13.2c0,0.8,0.1,1.4,0.4,1.7c0.3,0.3,0.7,0.5,1.2,0.5c0.6,0,1-0.2,1.3-0.5c0.3-0.3,0.4-0.9,0.4-1.7V10.4
			c0-0.8-0.1-1.4-0.4-1.7c-0.3-0.4-0.7-0.6-1.3-0.6c-0.6,0-1,0.2-1.2,0.5C124.5,9,124.3,9.6,124.3,10.4z"/>
		<path id="XMLID_252_" d="M142.7,32.9V1.2h21.1c2.9,0,5,0.5,6.3,1.6c1.3,1.1,1.9,2.8,1.9,5.2v8.7c0,2.8-0.6,4.8-1.8,6
			c-1.2,1.1-3.3,1.7-6.4,1.7h-8.2v8.5H142.7z M157.4,8.3h-1.7v8.9h1.7c0.6,0,1.1-0.2,1.4-0.5c0.3-0.3,0.4-0.9,0.4-1.8v-4.3
			c0-0.8-0.1-1.4-0.4-1.8C158.4,8.5,158,8.3,157.4,8.3z"/>
	</g>
	<path id="XMLID_250_" fill="#D83E35" d="M217.6,1.7h-38.7c-1.9,0-3.5,1.6-3.5,3.5V22c0,0.3,0.1,0.6,0.1,0.9l0,0l-10.2,9.4l16.1-6.7
		h36.1c1.9,0,3.5-1.6,3.5-3.5V5.3C221.1,3.3,219.5,1.7,217.6,1.7z"/>
	<g id="XMLID_244_">
		<path id="XMLID_247_" fill="#FFFFFF" d="M179.2,6.6h9.6c1.5,0,2.8,0.1,3.7,0.2c0.9,0.2,1.9,0.5,2.9,1c1,0.5,1.7,1.2,2.3,2.2
			c0.6,1,0.9,2.1,0.9,3.3c0,2.7-0.8,4.4-2.3,5.2c-1.5,0.8-2.8,1.3-3.8,1.5c-1,0.2-2.2,0.3-3.6,0.3h-9.7v-1.8h1.5
			c0.5,0,0.9-0.1,1-0.2c0.1-0.1,0.2-0.4,0.2-0.8V17l0-7.7l0-0.5c0-0.1-0.1-0.2-0.2-0.3c-0.1-0.1-0.4-0.1-0.9-0.1h-1.7V6.6z
			 M186.7,18.5h2.1c1.7,0,2.9-0.5,3.6-1.4s1.1-2.2,1.1-3.7c0-1.5-0.2-2.6-0.7-3.3c-0.5-0.7-0.9-1.2-1.4-1.4
			c-0.5-0.2-1.3-0.3-2.5-0.3h-2.2L186.7,18.5z"/>
		<path id="XMLID_245_" fill="#FFFFFF" d="M198.2,18.5h1.1h0.6c0.1,0,0.2,0,0.3-0.1c0.2-0.1,0.3-0.1,0.4-0.2l0.7-0.6l4-3.9l-4-4.3
			l-0.5-0.5c-0.1-0.2-0.3-0.3-0.5-0.4c-0.2-0.1-0.4-0.1-0.7-0.1h-1.2V6.6h9.5v1.8h-0.7c-0.4,0-0.7,0.1-0.7,0.3
			c0,0.2,0.1,0.4,0.3,0.6l1.5,2l1.9-2l0.3-0.4l0.2-0.3c0-0.2-0.2-0.3-0.6-0.3h-0.8V6.6h7.1v1.8h-1h-0.3c-0.4,0-0.7,0.2-0.9,0.4
			l-0.6,0.6l-3.4,3.3l4.6,4.9c0.3,0.4,0.6,0.6,0.9,0.8c0.2,0.1,0.5,0.2,0.9,0.2h0.7v1.8h-9.6v-1.8h1.1h0.5l0.3-0.1
			c0,0,0.1-0.1,0.1-0.2c0-0.1-0.1-0.3-0.3-0.6l-2.3-2.6l-2.6,2.6l-0.3,0.3l-0.1,0.2c0,0.2,0.2,0.4,0.7,0.4h1.1v1.8h-7.9V18.5z"/>
	</g>
</g>
</svg>
